PathFileType	4	(X/Y/Z)	14_coords_data.trc
DataRate	CameraRate	NumFrames	NumMarkers	Units	OrigDataRate	OrigDataStartFrame	OrigNumFrames
30.0	30.0	6	21	m	30.0	39	68
Frame#	Time	THUMB_TIP	THUMB_IP	THUMB_MCP	THUMB_CMC	INDEX_TIP	INDEX_DIP	INDEX_PIP	INDEX_MCP	MIDDLE_TIP	MIDDLE_DIP	MIDDLE_PIP	MIDDLE_MCP	RING_TIP	RING_DIP	RING_PIP	RING_MCP	PINKY_TIP	PINKY_DIP	PINKY_PIP	PINKY_MCP	WRIST
X1	Y1	Z1	X2	Y2	Z2	X3	Y3	Z3	X4	Y4	Z4	X5	Y5	Z5	X6	Y6	Z6	X7	Y7	Z7	X8	Y8	Z8	X9	Y9	Z9	X10	Y10	Z10	X11	Y11	Z11	X12	Y12	Z12	X13	Y13	Z13	X14	Y14	Z14	X15	Y15	Z15	X16	Y16	Z16	X17	Y17	Z17	X18	Y18	Z18	X19	Y19	Z19	X20	Y20	Z20	X21	Y21	Z21
38	1.2666666666666666	0.027060800552368165	-0.03497909927368164	0.9493300170898438	0.013332500457763671	-0.019401800155639647	0.9657310180664063	-0.003935280084609985	-0.01044789981842041	0.9879660034179687	-0.01671339988708496	0.016493400573730468	1.0016599731445313	0.03162350082397461	-0.004459939956665039	0.8887260131835938	0.01289210033416748	-0.006321680068969726	0.8992739868164062	-0.004471119880676269	-0.00709375	0.9136690063476562	-0.02060420036315918	-0.002993590116500854	0.9462210083007813	0.036848598480224606	0.02510569953918457	0.87627099609375	0.017566900253295898	0.023415000915527343	0.8887789916992187	-0.004353219985961914	0.020857799530029298	0.9064149780273437	-0.026541099548339844	0.019564500808715822	0.9396389770507813	0.039135601043701174	0.04367789840698242	0.8921069946289063	0.01959830093383789	0.04394020080566406	0.9010419921875	-0.002444060087203979	0.04309040069580078	0.9144180297851563	-0.024961299896240234	0.0402666015625	0.942906982421875	0.03409460067749023	0.07230699920654297	0.926301025390625	0.016576000213623047	0.07021610260009765	0.9303720092773438	9.16753988713e-06	0.06662850189208984	0.9365440063476562	-0.020465999603271483	0.05884260177612305	0.9510339965820312	-0.04496900177001953	0.03681880187988281	1.0137999877929686
39	1.3	0.01854640007019043	-0.03997209930419922	0.946322998046875	0.007535059928894043	-0.023177200317382813	0.9633590087890626	-0.008320819854736329	-0.01329170036315918	0.9865009765625	-0.01886400032043457	0.014301400184631347	1.0015800170898437	0.02492970085144043	-0.006781680107116699	0.881510009765625	0.008229780197143554	-0.0074148402214050295	0.8953670043945312	-0.007033649921417236	-0.006998610019683838	0.9121829833984375	-0.02117259979248047	-0.002383399963378906	0.94510498046875	0.031539100646972656	0.025119699478149415	0.8699180297851562	0.013947400093078613	0.023714300155639648	0.8851710205078125	-0.0060430698394775394	0.02157749938964844	0.9050880126953125	-0.0261653995513916	0.02049769973754883	0.93952001953125	0.037342399597167966	0.04336780166625977	0.8885700073242188	0.0186072998046875	0.04391059875488281	0.8991380004882813	-0.0023938000202178952	0.043541500091552734	0.9140609741210938	-0.023743400573730467	0.04081529998779297	0.9431909790039062	0.034888500213623046	0.07190689849853515	0.9245830078125	0.01740489959716797	0.06995279693603515	0.9297960205078125	0.001220479965209961	0.06644180297851562	0.9364949951171875	-0.01868589973449707	0.058968101501464844	0.952031005859375	-0.04547969818115234	0.03638370132446289	1.01372998046875
40	1.3333333333333333	0.011171500205993652	-0.044131401062011716	0.9450640258789063	0.0026064600944519043	-0.0262322998046875	0.96239599609375	-0.011953499794006348	-0.015271499633789062	0.9856900024414063	-0.02078459930419922	0.012873900413513184	1.001760009765625	0.01917049980163574	-0.009772089958190918	0.876364990234375	0.004738639831542968	-0.009204469680786132	0.8929719848632812	-0.0083745698928833	-0.007827970027923584	0.9113619995117187	-0.021361099243164063	-0.0023294799327850343	0.94472802734375	0.025833099365234376	0.024457000732421876	0.8638989868164062	0.010315799713134765	0.023223899841308595	0.882031005859375	-0.007198090076446533	0.021458599090576173	0.9041240234375	-0.025108299255371093	0.02082379913330078	0.9393870239257812	0.034787899017333986	0.04258779907226563	0.8839760131835938	0.017125099182128907	0.04326039886474609	0.8967949829101562	-0.002298899888992309	0.043275501251220705	0.9133400268554688	-0.021918699264526366	0.040872501373291015	0.9430640258789063	0.03495339965820313	0.07216010284423828	0.921676025390625	0.017928400039672852	0.06998419952392577	0.9283070068359375	0.00247251009941101	0.06648570251464844	0.9361430053710937	-0.01659630012512207	0.05880670166015625	0.9521810302734375	-0.046248798370361326	0.03627679824829102	1.0134500122070313
41	1.3666666666666667	0.006016280174255371	-0.04619329833984375	0.943885009765625	-0.000678031027317047	-0.02784160041809082	0.9613690185546875	-0.01420740032196045	-0.01626609992980957	0.9851409912109375	-0.02192930030822754	0.01211460018157959	1.00147998046875	0.014663700103759766	-0.011402500152587891	0.873218017578125	0.0017063100337982172	-0.010229700088500977	0.891448974609375	-0.009760709762573242	-0.008360039710998536	0.9106229858398438	-0.021737300872802734	-0.0023592700958251947	0.9440869750976563	0.020325199127197265	0.023987499237060547	0.8596270141601563	0.006988920211791992	0.022734800338745118	0.8796539916992188	-0.008530240058898925	0.0211875	0.9031300048828125	-0.024739299774169922	0.020680299758911135	0.9388460083007812	0.031350400924682616	0.04185139846801758	0.88006298828125	0.014921199798583985	0.04263619995117188	0.89443798828125	-0.003042459964752197	0.042798999786376954	0.9125570068359375	-0.02097480010986328	0.04072719955444336	0.9428779907226562	0.03403070068359375	0.07317659759521485	0.919166015625	0.01769219970703125	0.07041960144042969	0.9271699829101563	0.0028480699062347413	0.06658910369873047	0.935822998046875	-0.015480799674987793	0.05846630096435547	0.9522890014648437	-0.04654050064086914	0.03617150115966797	1.0131199951171874
42	1.4	0.001519440054893493	-0.048842899322509764	0.9444030151367188	-0.0035467300415039063	-0.02970840072631836	0.9616740112304687	-0.01610409927368164	-0.017339799880981447	0.9851240234375	-0.02292569923400879	0.011474599838256836	1.0015	0.009989500045776367	-0.012670100212097168	0.8706810302734375	-0.001215919971466064	-0.011144200325012206	0.8901279907226562	-0.011383299827575683	-0.008865369796752929	0.9101400146484375	-0.021987800598144532	-0.00238742995262146	0.9438569946289063	0.01405739974975586	0.02379330062866211	0.8560139770507813	0.002810070037841797	0.022431600570678712	0.8774719848632813	-0.01038379955291748	0.020988500595092774	0.9025339965820313	-0.024440000534057617	0.02068239974975586	0.9387930297851562	0.02700309944152832	0.04201699829101563	0.8759739990234375	0.01185890007019043	0.042664600372314454	0.8923200073242188	-0.004331160068511963	0.04270729827880859	0.911948974609375	-0.020299800872802733	0.04059519958496094	0.9426810302734375	0.031957500457763674	0.07481659698486329	0.9160139770507812	0.01639669990539551	0.07131220245361328	0.925468017578125	0.002377229928970337	0.06695220184326171	0.9351190185546875	-0.014956899642944336	0.05815549850463867	0.9520460205078125	-0.04707889938354492	0.03619869995117188	1.0129199829101563
43	1.4333333333333333	-0.001095710039138794	-0.05038539886474609	0.9446790161132812	-0.005375440120697021	-0.03087140083312988	0.9617410278320313	-0.017303400039672852	-0.017931800842285156	0.985093994140625	-0.023636499404907228	0.011087200164794923	1.001469970703125	0.006705530166625976	-0.014088600158691407	0.8693350219726562	-0.003422529935836792	-0.012235400199890136	0.8893140258789063	-0.012617799758911133	-0.009596309661865234	0.909864990234375	-0.022441499710083006	-0.002633179903030395	0.9438410034179687	0.009852319717407227	0.02296030044555664	0.8541380004882813	-7.782919704914e-05	0.021728599548339844	0.8761840209960937	-0.011906599998474121	0.02047260093688965	0.9019539794921875	-0.02461669921875	0.020373199462890627	0.9387130126953125	0.02375749969482422	0.041414901733398436	0.8733189697265625	0.009577699661254883	0.042141899108886716	0.8907109985351562	-0.005539120197296143	0.04223749923706055	0.9112069702148438	-0.020286699295043946	0.04030179977416992	0.9425180053710938	0.03041860008239746	0.07511430358886718	0.9137429809570312	0.015337900161743164	0.07133300018310547	0.9240650024414062	0.001872900009155273	0.06674420166015625	0.9343040161132813	-0.014899600028991699	0.05781779861450195	0.9517639770507812	-0.04747079849243164	0.03614590072631836	1.0128499755859375
